<?xml version="1.0" encoding="UTF-8"?><svg xmlns="http://www.w3.org/2000/svg" xmlns:xlink="http://www.w3.org/1999/xlink" fill-opacity="1" color-rendering="auto" color-interpolation="auto" text-rendering="auto" stroke="black" stroke-linecap="square" width="845" stroke-miterlimit="10" shape-rendering="auto" stroke-opacity="1" fill="black" stroke-dasharray="none" font-weight="normal" stroke-width="1" height="488" font-family="'Dialog'" font-style="normal" stroke-linejoin="miter" font-size="12px" stroke-dashoffset="0" image-rendering="auto">
  <!--Generated by ySVG 2.5-->
  <defs id="genericDefs"/>
  <g>
    <defs id="defs1">
      <clipPath clipPathUnits="userSpaceOnUse" id="clipPath1">
        <path d="M0 0 L845 0 L845 488 L0 488 L0 0 Z"/>
      </clipPath>
      <clipPath clipPathUnits="userSpaceOnUse" id="clipPath2">
        <path d="M275 332 L1120 332 L1120 820 L275 820 L275 332 Z"/>
      </clipPath>
    </defs>
    <g fill="white" text-rendering="geometricPrecision" shape-rendering="geometricPrecision" transform="translate(-275,-332)" stroke="white">
      <rect x="275" width="845" height="488" y="332" clip-path="url(#clipPath2)" stroke="none"/>
    </g>
    <g text-rendering="geometricPrecision" stroke-miterlimit="1.45" shape-rendering="geometricPrecision" transform="matrix(1,0,0,1,-275,-332)" stroke-linecap="butt">
      <rect fill="none" x="290" width="325" height="130" y="533" clip-path="url(#clipPath2)"/>
      <text x="421.3945" font-size="16px" y="604.0469" clip-path="url(#clipPath2)" font-family="sans-serif" stroke="none" font-weight="bold" xml:space="preserve">Testing</text>
      <rect fill="none" x="577" width="316" height="107" y="698" clip-path="url(#clipPath2)"/>
      <text x="646.0938" font-size="16px" y="748.125" clip-path="url(#clipPath2)" font-family="sans-serif" stroke="none" font-weight="bold" xml:space="preserve">Testing in Production</text>
      <text x="603.4883" font-size="16px" y="766.9688" clip-path="url(#clipPath2)" font-family="sans-serif" stroke="none" font-weight="bold" xml:space="preserve">Smoke tests / Acceptance Tests</text>
      <rect fill="none" x="838" width="267" height="96" y="552.5" clip-path="url(#clipPath2)"/>
      <text x="895.9961" font-size="16px" y="597.125" clip-path="url(#clipPath2)" font-family="sans-serif" stroke="none" font-weight="bold" xml:space="preserve">Monitoring Simple</text>
      <text x="903.0508" font-size="16px" y="615.9688" clip-path="url(#clipPath2)" font-family="sans-serif" stroke="none" font-weight="bold" xml:space="preserve">(up/down + KPI)</text>
      <rect fill="none" x="588" width="267" height="63" y="347" clip-path="url(#clipPath2)"/>
      <text x="676.1523" font-size="16px" y="384.5469" clip-path="url(#clipPath2)" font-family="sans-serif" stroke="none" font-weight="bold" xml:space="preserve">Monitoring</text>
      <rect fill="none" x="393" width="252" height="35" y="468" clip-path="url(#clipPath2)"/>
      <text x="438.0273" font-size="16px" y="491.5469" clip-path="url(#clipPath2)" font-family="sans-serif" stroke="none" font-weight="bold" xml:space="preserve">Explorations / Logs</text>
      <path fill="none" d="M486.0296 662.9917 L490.1111 669.0096 L506.9029 688.584 L525.8222 706.1108 L546.8689 721.5898 L569.707 734.8264 L569.7982 734.8674" clip-path="url(#clipPath2)"/>
      <path d="M577.0771 738.1865 L568.2331 728.6585 L568.8883 734.4526 L564.0842 737.7573 Z" clip-path="url(#clipPath2)" stroke="none"/>
      <path fill="none" d="M893 751.5 L909.8458 736.2814 L924.682 720.0181 L937.5088 702.7101 L948.326 684.3574 L957.1338 664.9601 L960.093 656.062" clip-path="url(#clipPath2)"/>
      <path d="M962.6175 648.4707 L954.0862 658.2797 L959.7774 657.0109 L963.5752 661.4354 Z" clip-path="url(#clipPath2)" stroke="none"/>
      <path fill="none" d="M964.4212 552.5066 L963.3333 546.7554 L956.7766 522.6682 L948.5712 500.4378 L938.717 480.0641 L927.2141 461.5472 L914.0623 444.8871 L899.2617 430.0837 L882.8123 417.1371 L864.7141 406.0472 L862.2803 404.9093" clip-path="url(#clipPath2)"/>
      <path d="M855.0334 401.5209 L863.786 411.1329 L863.1862 405.3329 L868.0216 402.0742 Z" clip-path="url(#clipPath2)" stroke="none"/>
      <path fill="none" d="M588.0006 399.1535 L587.0133 399.7385 L575.3371 408.2808 L564.3142 418.0594 L553.9447 429.0746 L544.2285 441.3262 L535.1656 454.8144 L531.5942 461.0678" clip-path="url(#clipPath2)"/>
      <path d="M527.6266 468.0147 L537.9197 460.0741 L532.0901 460.1995 L529.2361 455.1147 Z" clip-path="url(#clipPath2)" stroke="none"/>
      <path fill="none" d="M482.8609 503.0166 L470.4653 513.739 L461.372 525.819 L461.331 525.9102" clip-path="url(#clipPath2)"/>
      <path d="M457.7843 533.081 L467.5861 524.5414 L461.7744 525.0138 L458.6226 520.108 Z" clip-path="url(#clipPath2)" stroke="none"/>
    </g>
  </g>
</svg>
